<svg width="485" height="618" viewBox="0 0 485 618" fill="none" xmlns="http://www.w3.org/2000/svg">
<path d="M159.664 284.608C171.271 272.027 182.788 258.353 194.363 245.564C223.167 213.894 252.478 182.69 282.286 151.964C327.357 106.167 373.398 59.3648 425.339 21.2808C436.483 13.6288 453.152 0.334826 466.918 0.00482627C484.248 -0.410174 484.979 26.0458 483.891 37.8828C479.173 89.2158 445.388 152.395 406.808 185.365C405.096 181.194 405.528 153.719 405.485 146.981C408.453 147.366 437.301 147.718 438.727 147.146C436.954 145.714 434.045 146.206 431.781 146.394C424.896 146.289 418.01 146.286 411.125 146.387C409.042 145.983 406.96 146.488 404.869 145.618L404.203 146.274C392.268 146.158 380.333 146.172 368.399 146.316C363.335 145.872 359.353 145.776 354.313 146.366C355.46 147.186 381.642 131.024 383.154 130.785C393.015 130.941 416.426 131.841 425.453 130.759C427.437 140.074 402.4 178.358 405.926 186.428C393.027 197.199 379.463 209.514 366.834 220.722C327.067 256.262 288.148 292.74 250.111 330.126C229.086 350.733 208.372 371.655 187.978 392.886C166.292 415.39 144.539 439.121 125.509 463.967C121.309 469.449 118.167 475.497 114.308 481.124C153.11 475.123 197.366 461.753 221.988 428.327C230.545 416.71 231.82 403.927 229.884 389.912C244.887 377.58 260.164 365.748 275.155 353.394C282.275 347.523 289.443 341.709 296.656 335.953C299.954 333.31 306.269 328.052 309.661 326.093C338.347 407.148 325.492 484.403 246.941 531.694L236.712 538.347C203.417 559.146 169.263 579.963 134.318 597.929C123.885 603.293 109.658 610.221 98.5722 613.763C91.1902 616.2 83.4662 617.437 75.6922 617.425C17.2792 617.604 9.56519 556.85 5.00419 512.093C1.65019 478.987 -0.0208045 445.732 0.000195481 412.457C8.3922 429.84 12.7922 442.814 30.4222 454.228C22.7012 403.151 20.9812 368.92 28.2902 318.316C29.3302 312.528 30.4782 306.759 31.7332 301.014C34.2192 287.08 38.5282 272.914 42.5202 259.354C56.1642 212.997 75.4462 174.875 100.005 133.714C117.02 104.667 136.132 76.8998 157.188 50.6328C169.018 35.7638 181.608 19.5968 196.514 7.90082C201.386 4.07782 214.648 -1.27817 217.405 6.53783C224.714 27.2628 215.585 54.9638 210.509 75.7768C200.732 108.406 188.011 144.064 171.754 173.723C162.503 190.601 149.836 208.169 139.981 224.748C124.765 250.739 109.806 276.879 95.1042 303.165C93.4742 306.144 91.5362 309.912 89.7732 312.729L82.7142 325.646L120.885 325.722C119.077 328.896 117.003 332.491 114.97 335.505C95.6342 364.18 86.3132 393.801 74.9782 425.942C85.6812 414.226 96.6742 399.478 107.506 387.245C138.808 351.895 172.943 314.453 209.573 284.861C194.005 285.493 175.358 284.841 159.664 284.608Z" fill="#1EC57A"/>
<path d="M241.265 439.46C244.821 439.673 247.511 439.686 248.054 443.733C247.415 445.875 246.964 446.13 245.382 447.834C243.246 448.232 241.676 448.029 239.793 447.076C237.28 443.759 238.904 442.202 241.265 439.46Z" fill="#1EC57A"/>
<path d="M94.8053 146.644C105.059 145.709 118.137 146.315 128.589 146.19C130.943 146.162 131.534 146.15 132.776 147.501C126.091 147.097 98.2923 147.956 94.8053 146.644Z" fill="#1EC57A"/>
<path d="M404.203 146.274L404.869 145.618C406.96 146.488 409.042 145.983 411.125 146.387C414.716 147.222 428.508 147.363 431.781 146.394C434.045 146.206 436.954 145.714 438.727 147.146C437.301 147.718 408.453 147.366 405.485 146.981C405.528 153.719 405.096 181.194 406.808 185.365L405.926 186.428C402.4 178.358 406.132 156.123 404.148 146.808L404.203 146.274Z" fill="#1EC57A"/>
<path d="M411.125 146.387C418.01 146.286 424.896 146.289 431.781 146.394C428.508 147.363 414.716 147.222 411.125 146.387Z" fill="#1EC57A"/>
</svg>
